# xmcd CD database file
#
# Track frame offsets:
#	150
#	17837
#	35881
#	64667
#	87819
#	112142
#	133952
#	156163
#	174453
#	199188
#	220248
#	241726
#	262890
#	319954
#
# Disc length: 4271 seconds
#
# Revision: 0
# Processed by: cddbd v1.5.1PL2 Copyright (c) Steve Scherf et al.
# Submitted via: CDex 1.50beta10
#
DISCID=cb10ad0e
DTITLE=Nils Gessinger - Burning
DYEAR=2006
DGENRE=Jazz
TTITLE0=Burning
TTITLE1=Holiday Me
TTITLE2=Cuna
TTITLE3=Cicale
TTITLE4=Double Threat
TTITLE5=Star Crazy
TTITLE6=Flap
TTITLE7=Frozen
TTITLE8=Stepping along
TTITLE9=In Sight
TTITLE10=Slam
TTITLE11=Integrity
TTITLE12=Get that lick, Attig!
TTITLE13=14
EXTD=YEAR: 2006
EXTT0=
EXTT1=
EXTT2=
EXTT3=
EXTT4=
EXTT5=
EXTT6=
EXTT7=
EXTT8=
EXTT9=
EXTT10=
EXTT11=
EXTT12=
EXTT13=
PLAYORDER=
